<svg xmlns="http://www.w3.org/2000/svg" viewBox="0 0 520 200" role="img" aria-labelledby="t">
  <title id="t">Steel bar grating cover graphic</title>
  <rect width="520" height="200" fill="#ffffff"/>
  <rect x="0" y="0" width="520" height="200" fill="#f4f6f9"/>
  <g transform="translate(40,35)">
    <rect x="0" y="0" width="440" height="130" fill="#ffffff" stroke="#1e3a5f" stroke-width="2"/>
    <g stroke="#2c5282" stroke-width="1.4">
      <line x1="15" y1="10" x2="15" y2="120"/><line x1="38" y1="10" x2="38" y2="120"/><line x1="61" y1="10" x2="61" y2="120"/><line x1="84" y1="10" x2="84" y2="120"/><line x1="107" y1="10" x2="107" y2="120"/><line x1="130" y1="10" x2="130" y2="120"/><line x1="153" y1="10" x2="153" y2="120"/><line x1="176" y1="10" x2="176" y2="120"/><line x1="199" y1="10" x2="199" y2="120"/><line x1="222" y1="10" x2="222" y2="120"/><line x1="245" y1="10" x2="245" y2="120"/><line x1="268" y1="10" x2="268" y2="120"/><line x1="291" y1="10" x2="291" y2="120"/><line x1="314" y1="10" x2="314" y2="120"/><line x1="337" y1="10" x2="337" y2="120"/><line x1="360" y1="10" x2="360" y2="120"/><line x1="383" y1="10" x2="383" y2="120"/><line x1="406" y1="10" x2="406" y2="120"/><line x1="10" y1="25" x2="420" y2="25"/><line x1="10" y1="50" x2="420" y2="50"/><line x1="10" y1="75" x2="420" y2="75"/><line x1="10" y1="100" x2="420" y2="100"/></g>
    <circle cx="222" cy="50" r="5" fill="#5a6a7a" stroke="#1a2332"/>
  </g>
  <text x="40" y="24" font-family="Arial,sans-serif" font-size="11" fill="#4a5568">Welded � press-locked � schematic (not to scale)</text>
</svg>
