<svg xmlns="http://www.w3.org/2000/svg" viewBox="0 0 400 200" role="img" aria-labelledby="t">
  <title id="t">Accessory types layout</title>
  <rect width="400" height="200" fill="#ffffff"/>
  <text x="16" y="26" font-family="Arial,sans-serif" font-size="12" fill="#1e3a5f" font-weight="700">Typical fixings (schematic)</text>
  <g transform="translate(40,50)">
    <path d="M10 40 L30 20 L50 40 L40 40 L40 55 L20 55 L20 40 Z" fill="#e8f1f8" stroke="#2b6cb0" stroke-width="1.5"/>
    <text x="5" y="85" font-family="Arial,sans-serif" font-size="9" fill="#4a5568">Saddle</text>
  </g>
  <g transform="translate(130,48)">
    <rect x="20" y="25" width="40" height="8" fill="#d8dee8" stroke="#1a2332"/>
    <path d="M15 33 L25 15 L35 33" fill="none" stroke="#2b6cb0" stroke-width="2"/>
    <line x1="40" y1="33" x2="40" y2="50" stroke="#1a2332"/>
    <text x="10" y="85" font-family="Arial,sans-serif" font-size="9" fill="#4a5568">Hold-down</text>
  </g>
  <g transform="translate(230,55)">
    <rect x="10" y="30" width="50" height="10" fill="#d8dee8" stroke="#1a2332"/>
    <line x1="20" y1="15" x2="20" y2="30" stroke="#1a2332"/><line x1="35" y1="15" x2="35" y2="30" stroke="#1a2332"/>
    <text x="5" y="85" font-family="Arial,sans-serif" font-size="9" fill="#4a5568">Fasteners</text>
  </g>
  <g transform="translate(310,52)">
    <rect x="5" y="35" width="55" height="8" fill="#b8c8d8" stroke="#1a2332"/>
    <text x="8" y="85" font-family="Arial,sans-serif" font-size="9" fill="#4a5568">Banding</text>
  </g>
  <text x="16" y="175" font-family="Arial,sans-serif" font-size="10" fill="#4a5568">Use released clip schedule / detail for the order</text>
</svg>
